<?xml version="1.0" standalone="no"?><!DOCTYPE svg PUBLIC "-//W3C//DTD SVG 1.1//EN" "http://www.w3.org/Graphics/SVG/1.1/DTD/svg11.dtd"><svg width="100%" height="100%" viewBox="0 0 952 144" version="1.1" xmlns="http://www.w3.org/2000/svg" xmlns:xlink="http://www.w3.org/1999/xlink" xml:space="preserve" style="fill-rule:evenodd;clip-rule:evenodd;stroke-linejoin:round;stroke-miterlimit:1.41421;"><g id="addictivetips"><g id="tips"><path d="M777.992,111.951l0,-5.1c0,-1.5 -1.05,-2.1 -3.15,-2.1l-12.15,0c-8.25,0 -11.1,-1.5 -11.1,-10.2l0,-52.2l23.4,0c1.65,0 2.85,-1.2 2.85,-2.7l0,-5.1c0,-1.65 -1.2,-2.7 -2.85,-2.7l-23.4,0l0,-15.9c0,-1.5 -1.05,-2.85 -2.55,-2.85c0,0 -0.15,0 -0.3,0l-7.35,1.2c-1.65,0.3 -3,1.35 -3,2.85l0,77.4c0,16.2 8.1,20.85 22.2,20.85c5.4,0 11.55,-0.45 14.4,-0.9c2.25,-0.3 3,-1.2 3,-2.55Z" style="fill:#cecece;fill-rule:nonzero;"/><path d="M803.342,15.6509l0,-12c0,-1.65 -1.35,-3 -3,-3l-7.65,0c-1.65,0 -3,1.35 -3,3l0,12c0,1.65 1.35,3 3,3l7.65,0c1.65,0 3,-1.35 3,-3ZM803.042,111.351l0,-76.5c0,-1.65 -1.35,-3 -3,-3l-7.2,0c-1.65,0 -3,1.35 -3,3l0,76.5c0,1.65 1.35,3 3,3l7.2,0c1.65,0 3,-1.35 3,-3Z" style="fill:#cecece;fill-rule:nonzero;"/><path d="M884.942,78.6509l0,-10.8c0,-22.5 -10.35,-37.05 -32.7,-37.05c-9.15,0 -19.65,1.5 -27.6,3.45c-2.7,0.6 -3.15,1.5 -3.15,3.45l0,103.2c0,1.65 1.2,2.85 2.7,2.85l7.65,0c1.65,0 2.85,-1.35 2.85,-2.85l0,-27.15c5.85,1.05 12.9,1.65 17.55,1.65c21.9,0 32.7,-13.2 32.7,-36.75ZM871.742,78.6509c0,16.05 -4.8,25.65 -19.5,25.65c-4.8,0 -12.6,-0.6 -17.55,-1.5l0,-59.4c4.2,-0.75 11.25,-1.5 17.55,-1.5c14.85,0 19.5,10.2 19.5,25.95l0,10.8Z" style="fill:#cecece;fill-rule:nonzero;"/><path d="M951.092,93.6509c0,-8.85 -4.05,-15.3 -16.5,-22.65l-14.85,-8.85c-6.9,-4.05 -10.35,-6.9 -10.35,-11.4c0,-7.65 5.55,-8.7 13.95,-8.7c8.4,0 18,0.75 23.25,1.2c0.15,0 0.3,0 0.45,0c1.5,0 2.55,-0.75 2.55,-2.55l0,-4.95c0,-1.65 -0.9,-2.7 -2.85,-3c-7.05,-1.2 -15,-1.95 -23.4,-1.95c-15.45,0 -27.15,4.35 -27.15,19.95c0,9.45 6.15,15.9 15.3,21.45l15.15,9c8.55,5.1 11.25,7.95 11.25,12.45c0,8.1 -5.1,10.65 -14.85,10.65c-5.4,0 -16.35,-0.75 -23.55,-1.65c-0.15,0 -0.3,0 -0.6,0c-1.5,0 -2.7,0.9 -2.7,2.25l0,5.25c0,1.65 1.2,2.55 3.15,3c7.35,1.8 18.15,2.25 23.7,2.25c16.8,0 28.05,-6.45 28.05,-21.75Z" style="fill:#cecece;fill-rule:nonzero;"/><circle cx="121.945" cy="71.1004" r="20.6449" style="fill:#cecece;"/><circle cx="70.0403" cy="71.1004" r="20.6449" style="fill:#cecece;"/><circle cx="21.1098" cy="71.1004" r="20.6449" style="fill:#cecece;"/></g><g id="addictive"><g><path d="M237.192,108.501l0,-70.8c0,-2.1 -0.45,-2.85 -3.15,-3.45c-7.95,-1.95 -18.6,-3.45 -27.6,-3.45c-22.5,0 -32.7,14.55 -32.7,37.05l0,10.5c0,22.5 10.35,37.05 32.7,37.05c9.15,0 19.65,-1.5 27.6,-3.45c2.7,-0.6 3.15,-1.5 3.15,-3.45ZM223.992,102.801c-4.2,0.75 -11.25,1.5 -17.55,1.5c-14.85,0 -19.5,-10.2 -19.5,-25.95l0,-10.5c0,-15.9 4.65,-25.95 19.5,-25.95c6.3,0 13.5,0.75 17.55,1.5l0,59.4Z" style="fill:#bfbfbf;fill-rule:nonzero;"/><path d="M725.142,74.0009l0,-8.1c0,-21.3 -11.1,-35.1 -33,-35.1c-21.45,0 -33.3,13.65 -33.3,35.1l0,13.5c0,27.9 16.8,36 34.05,36c10.05,0 18.3,-0.9 26.85,-2.55c2.4,-0.45 3,-1.5 3,-3.45l0,-5.1c0,-1.5 -1.2,-2.1 -2.4,-2.1c-0.3,0 -0.45,0 -0.75,0c-6.9,1.05 -18,1.65 -26.7,1.65c-13.8,0 -20.85,-6.6 -20.85,-24.45l0,-2.1l50.25,0c1.8,0 2.85,-1.35 2.85,-3.3ZM711.792,67.2509l-39.75,0l0,-1.35c0,-16.2 7.2,-23.55 20.1,-23.55c13.2,0 19.65,6.6 19.65,23.55l0,1.35Z" style="fill:#bfbfbf;fill-rule:nonzero;"/></g><path d="M314.592,109.401l0,-105c0,-1.65 -1.2,-2.85 -2.7,-2.85l-7.65,0c-1.65,0 -2.85,1.35 -2.85,2.85l0,27.9c-5.85,-1.05 -12.9,-1.5 -17.55,-1.5c-21.9,0 -32.7,13.2 -32.7,36.75l0,10.8c0,22.5 10.35,37.05 32.7,37.05c9.15,0 18.3,-0.75 27.6,-2.55c2.7,-0.45 3.15,-1.5 3.15,-3.45ZM301.392,102.951c-5.1,0.45 -12.45,0.9 -17.55,0.9c-14.85,0 -19.5,-9.15 -19.5,-25.5l0,-10.8c0,-16.05 4.8,-25.2 19.5,-25.2c4.8,0 12.6,0.15 17.55,1.05l0,59.55Z" style="fill:#bfbfbf;fill-rule:nonzero;"/><path d="M391.992,109.401l0,-105c0,-1.65 -1.2,-2.85 -2.7,-2.85l-7.65,0c-1.65,0 -2.85,1.35 -2.85,2.85l0,27.9c-5.85,-1.05 -12.9,-1.5 -17.55,-1.5c-21.9,0 -32.7,13.2 -32.7,36.75l0,10.8c0,22.5 10.35,37.05 32.7,37.05c9.15,0 18.3,-0.75 27.6,-2.55c2.7,-0.45 3.15,-1.5 3.15,-3.45ZM378.792,102.951c-5.1,0.45 -12.45,0.9 -17.55,0.9c-14.85,0 -19.5,-9.15 -19.5,-25.5l0,-10.8c0,-16.05 4.8,-25.2 19.5,-25.2c4.8,0 12.6,0.15 17.55,1.05l0,59.55Z" style="fill:#bfbfbf;fill-rule:nonzero;"/><path d="M423.792,15.6509l0,-12c0,-1.65 -1.35,-3 -3,-3l-7.65,0c-1.65,0 -3,1.35 -3,3l0,12c0,1.65 1.35,3 3,3l7.65,0c1.65,0 3,-1.35 3,-3ZM423.492,111.351l0,-76.5c0,-1.65 -1.35,-3 -3,-3l-7.2,0c-1.65,0 -3,1.35 -3,3l0,76.5c0,1.65 1.35,3 3,3l7.2,0c1.65,0 3,-1.35 3,-3Z" style="fill:#bfbfbf;fill-rule:nonzero;"/><path d="M492.942,110.451l0,-5.4c0,-1.5 -1.2,-2.25 -2.55,-2.25c-0.3,0 -0.45,0 -0.6,0c-6.6,0.75 -11.25,1.05 -18.6,1.05c-12.15,0 -18.75,-8.1 -18.75,-24.9l0,-11.7c0,-16.95 6.75,-24.9 18.75,-24.9c7.35,0 12,0.3 18.6,1.05c0.15,0 0.3,0 0.6,0c1.35,0 2.55,-0.75 2.55,-2.25l0,-5.4c0,-2.1 -0.6,-2.85 -3,-3.3c-4.95,-0.9 -11.85,-1.65 -18.75,-1.65c-20.55,0 -31.95,14.4 -31.95,36.45l0,11.7c0,22.05 11.55,36.45 31.95,36.45c7.05,0 13.8,-0.75 18.75,-1.65c2.4,-0.45 3,-1.35 3,-3.3Z" style="fill:#bfbfbf;fill-rule:nonzero;"/><path d="M545.592,111.951l0,-5.1c0,-1.5 -1.05,-2.1 -3.15,-2.1l-12.15,0c-8.25,0 -11.1,-1.5 -11.1,-10.2l0,-52.2l23.4,0c1.65,0 2.85,-1.2 2.85,-2.7l0,-5.1c0,-1.65 -1.2,-2.7 -2.85,-2.7l-23.4,0l0,-15.9c0,-1.5 -1.05,-2.85 -2.55,-2.85c0,0 -0.15,0 -0.3,0l-7.35,1.2c-1.65,0.3 -3,1.35 -3,2.85l0,77.4c0,16.2 8.1,20.85 22.2,20.85c5.4,0 11.55,-0.45 14.4,-0.9c2.25,-0.3 3,-1.2 3,-2.55Z" style="fill:#bfbfbf;fill-rule:nonzero;"/><path d="M570.942,15.6509l0,-12c0,-1.65 -1.35,-3 -3,-3l-7.65,0c-1.65,0 -3,1.35 -3,3l0,12c0,1.65 1.35,3 3,3l7.65,0c1.65,0 3,-1.35 3,-3ZM570.642,111.351l0,-76.5c0,-1.65 -1.35,-3 -3,-3l-7.2,0c-1.65,0 -3,1.35 -3,3l0,76.5c0,1.65 1.35,3 3,3l7.2,0c1.65,0 3,-1.35 3,-3Z" style="fill:#bfbfbf;fill-rule:nonzero;"/><path d="M652.542,34.4009c0,-1.5 -0.9,-2.55 -2.4,-2.55l-8.25,0c-1.2,0 -2.25,0.9 -2.85,2.85l-17.25,65.4c-0.9,3.6 -1.8,4.35 -3.15,4.35c-1.5,0 -2.25,-0.75 -3.15,-4.35l-17.25,-65.4c-0.6,-1.95 -1.65,-2.85 -2.85,-2.85l-8.25,0c-1.5,0 -2.4,1.05 -2.4,2.55c0,0.3 0,0.6 0.15,1.05l20.25,71.4c1.95,6.75 7.05,8.55 13.5,8.55c6.45,0 11.55,-1.8 13.5,-8.55l20.25,-71.4c0.15,-0.45 0.15,-0.75 0.15,-1.05Z" style="fill:#bfbfbf;fill-rule:nonzero;"/></g></g></svg>