<?xml version="1.0" encoding="utf-8"?>


<!-- The icon can be used freely in both personal and commercial projects with no attribution required, but always appreciated. 
You may NOT sub-license, resell, rent, redistribute or otherwise transfer the icon without express written permission from iconmonstr.com -->


<!DOCTYPE svg PUBLIC "-//W3C//DTD SVG 1.1//EN" "http://www.w3.org/Graphics/SVG/1.1/DTD/svg11.dtd">

<svg version="1.1" xmlns="http://www.w3.org/2000/svg" xmlns:xlink="http://www.w3.org/1999/xlink" x="0px" y="0px"

	 width="512px" height="512px" viewBox="0 0 512 512" enable-background="new 0 0 512 512" xml:space="preserve">

<path id="gear-8-icon" d="M462,277.785v-43.569l-36.199-0.033c-1-7.85-2.541-15.528-4.566-23.009l33.422-13.88l-16.674-40.253

	l-33.447,13.818c-3.908-6.805-8.279-13.308-13.055-19.482l25.588-25.636L386.26,94.933l-25.637,25.588

	c-6.174-4.776-12.678-9.146-19.482-13.055l13.818-33.447l-40.252-16.674l-13.881,33.421c-7.479-2.024-15.158-3.566-23.008-4.565

	l-0.033-36.199h-43.57L234.182,86.2c-7.85,0.999-15.527,2.541-23.008,4.565l-13.879-33.421l-40.254,16.674l13.818,33.447

	c-6.803,3.909-13.309,8.28-19.482,13.056L125.74,94.933l-30.807,30.809l25.588,25.636c-4.775,6.175-9.146,12.678-13.055,19.482

	l-33.449-13.818l-16.672,40.253l33.422,13.88c-2.025,7.48-3.568,15.159-4.566,23.009L50,234.216v43.569l36.201,0.033

	c0.998,7.85,2.541,15.527,4.566,23.008l-33.422,13.88l16.672,40.253l33.449-13.818c3.91,6.805,8.279,13.309,13.055,19.484

	l-25.588,25.636l30.807,30.807l25.637-25.588c6.174,4.776,12.68,9.146,19.482,13.055l-13.818,33.449l40.254,16.671l13.879-33.419

	c7.48,2.024,15.158,3.566,23.008,4.565l0.033,36.198h43.57l0.033-36.198c7.85-0.999,15.529-2.541,23.008-4.565l13.881,33.42

	l40.252-16.672l-13.818-33.448c6.805-3.909,13.309-8.279,19.482-13.056l25.637,25.588l30.809-30.807l-25.59-25.636

	c4.775-6.176,9.146-12.68,13.057-19.484l33.447,13.818l16.674-40.253l-33.422-13.88c2.025-7.48,3.566-15.158,4.566-23.008

	L462,277.785z M256,339.366c-46.042,0-83.364-37.324-83.364-83.365s37.322-83.365,83.364-83.365s83.366,37.324,83.366,83.365

	S302.042,339.366,256,339.366z"/>

</svg>

