<?xml version="1.0" encoding="utf-8"?>


<!-- The icon can be used freely in both personal and commercial projects with no attribution required, but always appreciated. 
You may NOT sub-license, resell, rent, redistribute or otherwise transfer the icon without express written permission from iconmonstr.com -->


<!DOCTYPE svg PUBLIC "-//W3C//DTD SVG 1.1//EN" "http://www.w3.org/Graphics/SVG/1.1/DTD/svg11.dtd">

<svg version="1.1" xmlns="http://www.w3.org/2000/svg" xmlns:xlink="http://www.w3.org/1999/xlink" x="0px" y="0px"

	 width="512px" height="512px" viewBox="0 0 512 512" enable-background="new 0 0 512 512" xml:space="preserve">

<path id="gear-4-icon" d="M462,295.049v-78.098l-44.093-0.154c-4.107-17.021-10.82-33.022-19.706-47.556l31.074-31.294

	l-55.223-55.223l-31.294,31.074c-14.533-8.886-30.535-15.6-47.556-19.706L295.047,50h-78.096l-0.154,44.093

	c-17.021,4.107-33.023,10.82-47.557,19.706l-31.294-31.074l-55.223,55.223l31.075,31.294c-8.886,14.533-15.599,30.535-19.706,47.556

	L50,216.951v78.098l44.093,0.155c4.107,17.02,10.82,33.022,19.706,47.556l-31.075,31.294l55.223,55.222l31.294-31.074

	c14.533,8.887,30.536,15.6,47.557,19.707L216.951,462h78.096l0.156-44.092c17.021-4.107,33.023-10.82,47.557-19.705l31.293,31.072

	l55.223-55.222l-31.074-31.294c8.886-14.533,15.599-30.535,19.706-47.556L462,295.049z M256,332.18

	c-42.072,0-76.179-34.107-76.179-76.179c0-42.072,34.106-76.18,76.179-76.18s76.179,34.107,76.179,76.18

	C332.179,298.072,298.072,332.18,256,332.18z"/>

</svg>

