<?xml version="1.0" standalone="no"?><!DOCTYPE svg PUBLIC "-//W3C//DTD SVG 1.1//EN" "http://www.w3.org/Graphics/SVG/1.1/DTD/svg11.dtd"><svg width="100%" height="100%" viewBox="0 0 2487 620" version="1.1" xmlns="http://www.w3.org/2000/svg" xmlns:xlink="http://www.w3.org/1999/xlink" xml:space="preserve" style="fill-rule:evenodd;clip-rule:evenodd;stroke-linejoin:round;stroke-miterlimit:1.41421;"><g id="lifehacker"><path d="M95.3056,613.917l-95.3056,0l0,-605.653l95.3056,6.15273l0,599.5Z" style="fill:#c7c7c7;fill-rule:nonzero;"/><path d="M251.319,613.917l-95.3056,0l0,-431.944l95.3056,5.375l0,426.569ZM203.667,50.5416c29.9722,0 54.5695,24.5834 54.5695,54.5695c0,29.9722 -24.5972,54.5695 -54.5695,54.5695c-29.9722,0 -54.5695,-24.5972 -54.5695,-54.5695c0,-29.9861 24.5972,-54.5695 54.5695,-54.5695Z" style="fill:#c7c7c7;fill-rule:nonzero;"/><path d="M478.819,268.819l0,95.3056l-71.4722,0l0,249.375l-95.3056,0l0,-473.806c0,-72.25 59.9445,-137.583 130.653,-137.583c23.8333,0 43.0417,6.91662 47.6528,9.99997l-3.84722,91.4584l-43.8056,0c-19.2083,0 -35.3472,16.1389 -35.3472,36.125l0,129.125l71.4722,0Z" style="fill:#c7c7c7;fill-rule:nonzero;"/><path d="M612.681,351.833l71.4861,0l0,-44.5833c0,-19.9861 -16.1528,-36.125 -35.3611,-36.125c-19.9861,0 -36.125,16.1389 -36.125,36.125l0,44.5833ZM517.375,307.25c0,-72.25 58.4167,-131.431 131.431,-131.431c72.25,0 130.653,59.1806 130.653,131.431l0,92.2361c0,26.8889 -21.5139,47.6528 -47.6389,47.6528l-119.139,0l0,41.5c0,19.9861 16.1389,36.125 36.125,36.125l91.4583,0l3.08336,80.7083l-86.0833,13.0556c-83.0139,13.8333 -139.889,-57.6389 -139.889,-129.889l0,-181.389Z" style="fill:#c7c7c7;fill-rule:nonzero;"/><path d="M860.958,613.917l0,-601.806l61.5,0l0,182.917c16.9028,-5.375 43.8056,-7.68054 62.25,-7.68054c65.3334,0 116.056,59.1805 116.056,126.056l0,300.514l-59.9445,0l0,-300.514c0,-33.0556 -26.9028,-59.1806 -59.9445,-59.1806l-58.4167,0l0,359.694l-61.5,0Z" style="fill:#c7c7c7;fill-rule:nonzero;"/><path d="M1325.72,497.861l0,-103.764l-59.1806,0c-33.0555,0 -59.1806,26.1389 -59.1806,59.1806l0,44.5833c0,33.0556 26.1251,59.9444 59.1806,59.9444c33.0416,0 59.1806,-26.8889 59.1806,-59.9444ZM1325.72,303.403c0,-34.5833 -16.1388,-62.25 -59.9583,-57.6389l0.77769,0c-24.5972,0.763893 -56.1111,3.84722 -82.25,5.375c-0.763957,-22.2917 -1.52779,-30.7361 -2.29174,-47.6528c20.75,-7.68054 50.7222,-15.375 76.0834,-16.1389c76.8612,-1.54168 127.583,60.7222 127.583,127.583l0,182.931c0,66.0972 -53.0277,120.667 -119.125,120.667c-66.0973,0 -120.667,-54.5694 -120.667,-120.667l0,-37.6528c0,-66.1111 45.3334,-116.069 120.667,-116.069c28.4306,0 43.0417,3.08332 59.1806,7.69444l0,-48.4305Z" style="fill:#c7c7c7;fill-rule:nonzero;"/><path d="M1557.86,187.347c66.1111,0 120.68,53.8055 120.68,120.667l0,7.69444c-23.8333,0.763893 -43.0416,0.763893 -60.7222,1.52779l0,-9.22222c0,-32.2778 -26.9028,-59.1805 -59.9583,-59.1805c-32.2778,0 -58.4167,26.9028 -58.4167,59.1805l0,192.153c0,33.8194 26.1389,59.1806 58.4167,59.1806c32.2917,0 59.1805,-24.5972 59.9583,-56.875c29.9722,2.30556 58.4166,3.84723 60.7222,3.84723c-3.08329,63.7917 -56.875,114.514 -120.68,114.514c-66.0973,0 -119.903,-53.7917 -119.903,-120.667l0,-192.153c0,-66.8611 53.8055,-120.667 119.903,-120.667Z" style="fill:#c7c7c7;fill-rule:nonzero;"/><path d="M1920.79,613.917l-116.833,-203.681c-11.5278,-19.9722 -11.5278,-22.2778 2.3056,-46.1111l103,-170.625l69.9444,0l-116.069,196.764l125.292,223.653l-67.6389,0ZM1788.58,13.6389l0,600.278l-61.4861,0l0,-600.278l61.4861,0Z" style="fill:#c7c7c7;fill-rule:nonzero;"/><path d="M2062.86,373.347l118.375,0l0,-64.5555c0,-33.0556 -26.9028,-59.9583 -59.1946,-59.9583c-33.0416,0 -59.1806,26.9028 -59.1806,59.9583l0,64.5555ZM2001.38,308.792c0,-66.875 53.8055,-121.444 120.667,-121.444c66.0971,0 119.917,54.5694 119.917,121.444l0,94.5278c0,17.6805 -13.8471,30.75 -30.75,30.75l-148.347,0l0,65.3333c0,33.0417 26.1389,59.9444 59.1806,59.9444l77.6389,0c0.763957,19.9861 1.52791,33.8333 3.06956,47.6528l-73.7918,11.5278c-75.3194,13.0556 -127.583,-52.2639 -127.583,-119.125l0,-190.611Z" style="fill:#c7c7c7;fill-rule:nonzero;"/><path d="M2357.38,613.917l-61.5,0l0,-299.75c0,-66.875 52.2779,-129.125 129.125,-127.583c26.1391,0.763893 42.2778,6.91665 59.9584,15.375c-0.763957,18.4444 -1.54165,33.8055 -2.3056,47.6528l-66.861,-1.54165c-32.2917,0 -58.4167,34.5833 -58.4167,66.0972l0,299.75Z" style="fill:#c7c7c7;fill-rule:nonzero;"/></g></svg>