<?xml version="1.0" encoding="utf-8"?>
<!-- Generator: Adobe Illustrator 16.0.0, SVG Export Plug-In . SVG Version: 6.00 Build 0)  -->
<!DOCTYPE svg PUBLIC "-//W3C//DTD SVG 1.1//EN" "http://www.w3.org/Graphics/SVG/1.1/DTD/svg11.dtd">
<svg version="1.1" xmlns="http://www.w3.org/2000/svg" xmlns:xlink="http://www.w3.org/1999/xlink" x="0px" y="0px" width="512px"
	 height="512px" viewBox="0 0 512 512" enable-background="new 0 0 512 512" xml:space="preserve">
<g id="Layer_2">
</g>
<g id="Layer_1">
	
		<g id="svg2_1_" xmlns:dc="http://purl.org/dc/elements/1.1/" xmlns:cc="http://creativecommons.org/ns#" xmlns:rdf="http://www.w3.org/1999/02/22-rdf-syntax-ns#" xmlns:svg="http://www.w3.org/2000/svg" xmlns:sodipodi="http://sodipodi.sourceforge.net/DTD/sodipodi-0.dtd" xmlns:inkscape="http://www.inkscape.org/namespaces/inkscape" sodipodi:docname="bitcoin-logo-noshadow.svg" inkscape:version="0.48.2 r9819">
		<g>
			<g>
				<g>
					<path fill="#FFFFFF" d="M236.833,175.046l-0.054,57.323c16.208,0.013,67.11,3.845,67.148-28.588
						C303.955,169.952,253.04,175.06,236.833,175.046z"/>
				</g>
			</g>
			<g>
				<g>
					<path fill="#FFFFFF" d="M236.754,261.301l-0.065,63.204c19.457-0.001,80.495,4.11,80.511-31.539
						C317.236,255.783,256.217,261.322,236.754,261.301z"/>
				</g>
			</g>
			<g>
				<g>
					<path fill="#FFFFFF" d="M318.096,9.059C182.101-24.853,44.336,57.935,10.44,193.97
						c-33.928,136.011,48.852,273.784,184.832,307.696c136.036,33.92,273.8-48.86,307.711-184.88
						C536.896,180.759,454.124,42.971,318.096,9.059z M373.923,298.67c-4.235,45.323-38.03,57.452-86.3,60.177l-0.053,47.619
						l-28.709-0.023l0.056-46.982c-7.44,0-15.061-0.069-22.935-0.238l-0.042,47.198l-28.679-0.031l0.032-47.703
						c-6.716-0.048-13.557-0.172-20.51-0.188l-37.362-0.033l5.735-34.282c0,0,21.237,0.353,20.87,0.025
						c8.125-0.007,10.282-5.839,10.796-9.499l0.076-75.273c1.053-0.008,2.076,0,3.033-0.001c-1.185-0.164-2.232-0.198-3.034-0.203
						l0.046-53.732c-1.096-5.828-4.874-12.582-16.502-12.596c0.353-0.39-20.849-0.006-20.849-0.006l0.02-30.663l39.598,0.05
						l0.003,0.146c5.953,0.002,12.057-0.108,18.272-0.229l0.054-47.153l28.694,0.027l-0.047,46.227
						c7.665-0.146,15.38-0.288,22.927-0.281l0.04-45.924l28.712,0.023l-0.044,47.167c37.056,3.28,66.399,14.707,69.636,48.714
						c2.412,24.883-8.009,39.809-24.66,48.269C360.189,245.876,377.343,262.176,373.923,298.67z"/>
				</g>
			</g>
		</g>
	</g>
</g>
</svg>
